<svg xmlns="http://www.w3.org/2000/svg" width="93" height="93" fill="currentColor" viewBox="0 0 93 93">
  <g class="Group">
    <path fill="#E15B54" stroke="E15B54" d="M69.31 44.83c1.644.377 4.64 1.177 5.43 1.44.226.101.52.052.663-.065.22-.083.32-.31.422-.536.034-.075 2.24-11.055 7.963-18.553l.068-.152c.17-.377.078-.78-.265-1.026-11.078-8.053-21.49-9.098-21.936-9.116a.846.846 0 0 0-.622.174c-.177.193-.278.419-.27.604.013 5.628-4.758 10.198-10.462 10.178-5.704-.02-10.232-4.682-10.17-10.276.026-.26-.057-.48-.284-.581-.192-.177-.419-.279-.637-.196-.48.057-10.882 1.011-22.033 8.885-.143.118-.32.31-.346.57a.85.85 0 0 0 .174.623c6.8 8.492 7.697 18.415 7.663 18.491a.622.622 0 0 0 .36.615c.192.177.452.203.705.045.766-.292 3.809-1.012 5.423-1.376l-2.203 31.385a.85.85 0 0 0 .174.623c.042.109.193.177.268.21.075.034.227.102.336.06l40.414.27c.26.026.403-.091.58-.284.177-.192.245-.343.196-.637L69.31 44.83Zm-38.5 30.426 2.196-31.57a.745.745 0 0 0-.25-.656c-.075-.034-.117-.144-.268-.211-.151-.068-.226-.102-.411-.094-.849.073-4.111.876-5.869 1.357-.334-2.69-1.844-10.44-7.405-17.651 8.715-5.884 17.013-7.601 19.627-7.97.44 6.092 5.572 11.025 11.83 11.022 6.334.03 11.577-4.782 12.06-10.912 2.611.446 10.905 2.172 19.528 8.218-4.652 6.527-6.892 14.953-7.556 17.648-1.763-.52-5.095-1.38-5.91-1.382a.745.745 0 0 0-.656.25c-.177.192-.278.418-.27.603l1.879 31.585-38.524-.237Z" class="Vector"/>
    <path fill="#E15B54" stroke="E15B54" d="M62.54 39.89c-.056-.48-.441-.834-.845-.742l-7.906.442a.848.848 0 0 0-.581.283c-.177.193-.245.344-.196.638l.347 6.503c.046 1.109.572 2.161 1.418 2.903.31.32.687.49 1.14.693a3.855 3.855 0 0 0 1.94.327l1.033-.08c1.108-.047 2.16-.573 2.903-1.419a4.357 4.357 0 0 0 1.094-3.045l-.346-6.503Zm-1.902 8.486c-.498.502-1.078.786-1.742.85l-1.143.123a2.376 2.376 0 0 1-1.88-.662c-.502-.498-.786-1.078-.85-1.742l-.35-5.688 6.243-.373.35 5.688a2.98 2.98 0 0 1-.628 1.804Z" class="Vector"/>
  </g>
</svg>
