<svg xmlns="http://www.w3.org/2000/svg" width="72" height="72" fill="currentColor" viewBox="0 0 72 72">
  <g class="Group">
    <path fill="#E15B54" stroke="currentColor" d="M56.549 25.212c1.654-.33 4.716-.827 5.543-.91.248 0 .496-.165.58-.33.165-.166.165-.414.165-.662 0-.083-2.482-11.004-.33-20.188v-.165c0-.414-.249-.745-.663-.828-13.403-2.813-23.33.496-23.745.662a.846.846 0 0 0-.496.414c-.082.248-.082.496 0 .662 2.317 5.13-.166 11.252-5.377 13.568-5.213 2.317-11.252-.082-13.486-5.212-.083-.248-.249-.414-.497-.414-.248-.082-.496-.082-.662.083-.413.248-9.514 5.377-16.464 17.126-.083.165-.166.414-.083.662a.845.845 0 0 0 .414.496c9.68 4.965 14.561 13.651 14.561 13.734a.623.623 0 0 0 .58.414c.248.083.496 0 .662-.248.58-.58 3.061-2.482 4.385-3.475l10.838 29.537a.845.845 0 0 0 .414.496c.082.082.248.082.33.082.083 0 .249 0 .331-.082l36.983-16.299c.248-.083.33-.248.414-.496.082-.248.082-.414-.083-.662L56.55 25.212Zm-22.67 43.52L22.958 39.028a.745.745 0 0 0-.496-.496c-.083 0-.166-.083-.331-.083-.166 0-.248 0-.414.083-.744.414-3.392 2.482-4.798 3.64-1.407-2.317-5.958-8.77-13.983-13.072 5.543-8.936 12.41-13.9 14.644-15.306 2.896 5.377 9.598 7.777 15.306 5.212 5.792-2.565 8.605-9.101 6.536-14.892 2.565-.662 10.838-2.483 21.18-.497-1.572 7.86-.165 16.465.331 19.195-1.82.248-5.212.828-5.957 1.158a.745.745 0 0 0-.496.497c-.083.248-.083.496 0 .662l14.644 28.047L33.88 68.73Z" class="Vector"/>
    <path fill="#E15B54" stroke="currentColor" d="M48.35 23.475c-.247-.414-.744-.58-1.075-.33l-7.032 3.64a.848.848 0 0 0-.414.495c-.082.249-.082.414.083.662l2.978 5.792c.496.992 1.407 1.738 2.482 2.068.414.166.828.166 1.324.166.662 0 1.324-.166 1.903-.497l.91-.496c.993-.496 1.738-1.406 2.069-2.482a4.357 4.357 0 0 0-.249-3.227l-2.978-5.791Zm1.739 8.522c-.249.662-.662 1.158-1.241 1.489l-.993.58a2.38 2.38 0 0 1-1.986.165c-.662-.248-1.158-.662-1.49-1.241l-2.647-5.047 5.543-2.896 2.648 5.047c.248.579.33 1.24.166 1.903Z" class="Vector"/>
  </g>
</svg>
