<svg xmlns="http://www.w3.org/2000/svg" width="25" height="22" fill="currentColor" viewBox="0 0 25 22">
  <g class="icons / home" clip-path="url(#a)">
    <path fill="#C61626" d="M12.771 3.748a.4.4 0 0 0-.54 0l-8.989 8.244a.374.374 0 0 0-.12.271L3.12 20c0 .398.165.78.458 1.061.293.281.69.44 1.105.44h4.692a.798.798 0 0 0 .552-.22.735.735 0 0 0 .23-.53v-6.376c0-.1.04-.194.114-.265a.4.4 0 0 1 .276-.11h3.906a.4.4 0 0 1 .276.11c.074.07.115.166.115.265v6.375c0 .2.082.39.229.53.146.141.345.22.552.22h4.69c.415 0 .812-.158 1.105-.439a1.47 1.47 0 0 0 .458-1.06v-7.738a.362.362 0 0 0-.12-.271l-8.986-8.244Z" class="Vector"/>
    <path fill="#C61626" d="M23.97 10.444 20.318 7.09V2a.735.735 0 0 0-.229-.53.798.798 0 0 0-.552-.22h-2.344a.798.798 0 0 0-.552.22.735.735 0 0 0-.23.53v1.5L13.585.904C13.319.647 12.925.5 12.5.5c-.424 0-.816.147-1.08.405L1.032 10.444a.743.743 0 0 0-.065 1.048.806.806 0 0 0 1.132.05l10.132-9.294a.4.4 0 0 1 .54 0l10.132 9.294a.8.8 0 0 0 .556.208.796.796 0 0 0 .547-.229.747.747 0 0 0-.037-1.077Z" class="Vector"/>
  </g>
  <defs>
    <clipPath id="a" class="a">
      <path fill="#fff" d="M0 0h25v22H0z"/>
    </clipPath>
  </defs>
</svg>
