<svg xmlns="http://www.w3.org/2000/svg" width="59" height="53" fill="currentColor" viewBox="0 0 59 53">
  <g class="Group">
    <path fill="#E15B54" stroke="E15B54" d="M29.548.5h-.277C17.59.537 9.157 3.092 4.358 8.242.318 12.576.48 17.11.508 17.498v33.097a1.31 1.31 0 1 0 2.623 0v-5.116h52.557v5.116a1.31 1.31 0 1 0 2.621 0l-.002-33.052c.026-.415.201-4.957-3.846-9.3l-.365.34.365-.34C49.663 3.092 41.23.535 29.548.5Zm-4.114 18.647v4.481c-6.872.208-12.536 1.064-16.606 1.912v-6.393c0-.65.528-1.179 1.177-1.179h14.25c.65 0 1.178.53 1.178 1.179Zm-7.67 7.604c8.588-.946 22.101-1.173 37.922 3.014v5.178H3.13v-5.228c1.605-.53 6.836-2.106 14.633-2.964Zm32.221-1.005a108.458 108.458 0 0 0-16.605-2.057v-4.544c0-.65.528-1.178 1.177-1.178h14.25a1.18 1.18 0 0 1 1.178 1.178v6.601Zm-19.226-6.6v4.46c-.916-.019-1.819-.027-2.702-.023v-4.436c0-2.095-1.704-3.8-3.799-3.8H10.005a3.803 3.803 0 0 0-3.799 3.8v6.989a61.121 61.121 0 0 0-3.078.835V17.4l-.001-.014v-.01l-.002-.03-.002-.12c0-.106.005-.264.02-.467a9.53 9.53 0 0 1 .289-1.68c.363-1.387 1.148-3.23 2.842-5.048 4.147-4.453 12.092-6.892 23.134-6.908h.01c11.004.018 18.933 2.444 23.088 6.87l.364-.341-.364.342c3.363 3.582 3.185 7.353 3.18 7.455v9.612a110.423 110.423 0 0 0-3.077-.747v-7.167c0-2.095-1.705-3.8-3.8-3.8H34.56a3.803 3.803 0 0 0-3.8 3.8ZM3.13 42.858v-5.294h52.557v5.294H3.129Z" class="Vector"/>
  </g>
</svg>
