<svg xmlns="http://www.w3.org/2000/svg" width="107" height="140" fill="currentColor" viewBox="0 0 107 140">
  <g class="folded lantern">
    <path fill="#C61626" d="M43.536 27.34v-5.755a1.44 1.44 0 0 1 1.44-1.439h17.268a1.44 1.44 0 0 1 1.439 1.439v5.756a1.44 1.44 0 1 0 2.878 0v-5.756a4.317 4.317 0 0 0-4.317-4.317H44.976a4.317 4.317 0 0 0-4.317 4.317v5.756a1.439 1.439 0 1 0 2.877 0Zm2.879 94.976v14.391a1.44 1.44 0 0 0 2.879 0v-14.391a1.44 1.44 0 0 0-2.879 0Zm5.755 1.854v14.391a1.44 1.44 0 0 0 2.879 0V124.17a1.439 1.439 0 0 0-2.879 0Zm5.758-1.854v14.391a1.439 1.439 0 0 0 2.878 0v-14.391a1.439 1.439 0 0 0-2.878 0Z" class="Vector"/>
    <path fill="#C61626" d="M52.17 1.439v17.268a1.44 1.44 0 0 0 2.879 0V1.439a1.44 1.44 0 0 0-2.879 0ZM23.318 44.155a1.44 1.44 0 0 1-.625 1.69L9.596 53.701l4.92 7.378a1.44 1.44 0 0 1-.335 1.95l-9.976 7.482 9.976 7.484a1.44 1.44 0 0 1 .335 1.95l-4.92 7.378 13.097 7.857a1.44 1.44 0 0 1 .625 1.69l-2.55 7.649 10.298 7.724h45.09l10.3-7.724-2.551-7.65a1.44 1.44 0 0 1 .625-1.689l13.096-7.857-4.92-7.379a1.44 1.44 0 0 1 .335-1.95l9.977-7.483-9.977-7.482a1.44 1.44 0 0 1-.334-1.95l4.919-7.378-13.096-7.858a1.44 1.44 0 0 1-.625-1.689l2.55-7.65-10.299-7.724h-45.09l-10.298 7.724 2.55 7.65Zm-3.096-.185-2.512-7.54a1.438 1.438 0 0 1 .502-1.606l11.512-8.634a1.44 1.44 0 0 1 .863-.288h46.05c.31 0 .615.1.863.288l11.513 8.634c.495.371.697 1.018.5 1.606L87 43.97l13.401 8.04a1.44 1.44 0 0 1 .456 2.033l-5 7.5 10.423 7.819a1.44 1.44 0 0 1 0 2.302L95.856 79.48l5.001 7.502a1.44 1.44 0 0 1-.456 2.032l-13.4 8.04 2.512 7.539a1.438 1.438 0 0 1-.501 1.606l-11.513 8.635a1.437 1.437 0 0 1-.863.288h-46.05a1.44 1.44 0 0 1-.863-.288L18.21 106.2a1.438 1.438 0 0 1-.502-1.606l2.513-7.538-13.4-8.041a1.44 1.44 0 0 1-.458-2.032l5.002-7.502L.943 71.664a1.438 1.438 0 0 1 0-2.302l10.423-7.818-5.002-7.501a1.44 1.44 0 0 1 .458-2.032l13.4-8.041Z" class="Vector"/>
    <path fill="#C61626" d="M19.075 37.415h69.073a1.44 1.44 0 0 0 0-2.878H19.075a1.44 1.44 0 1 0 0 2.878Zm2.876 8.635h63.318a1.439 1.439 0 0 0 0-2.879H21.95a1.44 1.44 0 0 0 0 2.879ZM10.44 54.684h89.218a1.44 1.44 0 0 0 0-2.879H10.44a1.44 1.44 0 1 0 0 2.879Zm2.877 8.634h80.586a1.439 1.439 0 0 0 0-2.878H13.317a1.44 1.44 0 0 0 0 2.878Zm-8.634 8.634h97.854a1.44 1.44 0 0 0 0-2.878H4.683a1.44 1.44 0 0 0 0 2.878Zm8.634 8.634h80.586a1.439 1.439 0 0 0 0-2.878H13.317a1.44 1.44 0 0 0 0 2.878ZM10.44 89.22h89.218a1.44 1.44 0 0 0 0-2.878H10.44a1.44 1.44 0 1 0 0 2.878Zm11.511 8.634h63.318a1.439 1.439 0 0 0 0-2.878H21.95a1.44 1.44 0 0 0 0 2.878Zm-2.876 8.634h69.073a1.439 1.439 0 0 0 0-2.878H19.075a1.44 1.44 0 0 0 0 2.878Zm21.585 7.194v5.757c0 .794.644 1.438 1.439 1.438h23.024a1.44 1.44 0 0 0 1.44-1.438v-5.757a1.439 1.439 0 0 1 2.877 0v5.757a4.317 4.317 0 0 1-4.317 4.317H42.099a4.317 4.317 0 0 1-4.317-4.317v-5.757a1.44 1.44 0 0 1 2.878 0Z" class="Vector"/>
  </g>
</svg>
