<svg xmlns="http://www.w3.org/2000/svg" width="115" height="112" fill="currentColor" viewBox="0 0 115 112">
  <g class="oval lantern">
    <path fill="#C61626" d="M52.214 22.377h12.431v3.73a1.244 1.244 0 0 0 2.487 0v-4.973c0-.687-.557-1.243-1.243-1.243H50.97c-.687 0-1.244.556-1.244 1.243v4.972a1.244 1.244 0 0 0 2.487 0v-3.73Zm-4.972 68.376v2.486a3.73 3.73 0 0 0 3.729 3.73h14.918a3.73 3.73 0 0 0 3.73-3.73v-2.486a1.243 1.243 0 1 1 2.485 0v2.486a6.216 6.216 0 0 1-6.215 6.216H50.971a6.216 6.216 0 0 1-6.216-6.216v-2.486a1.244 1.244 0 1 1 2.486 0Z" class="Vector"/>
    <path fill="#C61626" d="M52.214 98.212v9.945a1.244 1.244 0 1 0 2.486 0v-9.945a1.244 1.244 0 0 0-2.486 0Zm4.971.867v11.677a1.244 1.244 0 1 0 2.487 0V99.079a1.244 1.244 0 1 0-2.486 0Zm4.975-.867v9.945a1.243 1.243 0 1 0 2.485 0v-9.945a1.243 1.243 0 1 0-2.485 0ZM57.185 1.244v19.89a1.243 1.243 0 0 0 2.487 0V1.244a1.244 1.244 0 1 0-2.486 0Zm0 93.239C25.691 94.483 0 79.067 0 59.672s25.691-34.81 57.185-34.81c31.495 0 57.188 15.416 57.188 34.81 0 19.392-25.693 34.81-57.188 34.81Zm0-2.487c30.3 0 54.701-14.64 54.701-32.323S87.484 27.35 57.186 27.35c-30.3 0-54.699 14.64-54.699 32.322 0 17.682 24.4 32.323 54.698 32.323Z" class="Vector"/>
    <path fill="#C61626" d="M57.185 94.483c-23.293 0-42.267-15.524-42.267-34.81s18.973-34.81 42.267-34.81c23.296 0 42.27 15.524 42.27 34.81 0 19.285-18.973 34.81-42.27 34.81Zm0-2.487c22.02 0 39.783-14.533 39.783-32.323S79.206 27.35 57.185 27.35c-22.019 0-39.78 14.533-39.78 32.322 0 17.79 17.762 32.323 39.78 32.323Z" class="Vector"/>
    <path fill="#C61626" d="M57.185 94.483c-15.182 0-27.349-15.644-27.349-34.81 0-19.166 12.167-34.81 27.35-34.81 15.182 0 27.35 15.644 27.35 34.81 0 19.165-12.167 34.81-27.35 34.81Zm0-2.487c13.654 0 24.865-14.413 24.865-32.323S70.84 27.35 57.185 27.35c-13.653 0-24.862 14.412-24.862 32.322 0 17.91 11.21 32.323 24.862 32.323Z" class="Vector"/>
    <path fill="#C61626" d="M58.43 94.483c-6.585 0-11.188-15.54-11.188-34.81 0-19.272 4.603-34.81 11.188-34.81 6.584 0 11.189 15.54 11.189 34.81 0 19.269-4.605 34.81-11.189 34.81Zm0-2.487c4.4 0 8.702-14.517 8.702-32.323S62.83 27.35 58.43 27.35c-4.401 0-8.703 14.517-8.703 32.322 0 17.806 4.302 32.323 8.703 32.323Z" class="Vector"/>
  </g>
</svg>
