<svg xmlns="http://www.w3.org/2000/svg" width="112" height="144" fill="currentColor" viewBox="0 0 112 144">
  <g class="small oval lantern">
    <path fill="#C61626" d="M61.816 125.286c.43 0 .866-.019 1.297-.048v13.534c0 .859.694 1.553 1.554 1.553.859 0 1.553-.694 1.553-1.553v-14.051c2.354-.66 4.14-1.909 4.14-3.822v-8.276C94.302 107.61 112 90.386 112 69.96c0-17.705-13.3-33.592-33.902-40.566a5.186 5.186 0 0 0 .371-1.906v-3.345a5.246 5.246 0 0 0-5.24-5.239H57.553V1.554A1.55 1.55 0 0 0 56 0c-.86 0-1.554.694-1.554 1.553v17.354H38.771a5.246 5.246 0 0 0-5.24 5.238v3.346c0 .669.139 1.304.369 1.894C13.62 36.545 0 52.842 0 69.96c0 20.426 17.698 37.652 41.64 42.663v8.277c0 2.052 2.052 3.342 4.66 3.958v13.916c0 .859.694 1.553 1.553 1.553.86 0 1.554-.694 1.554-1.553v-13.502c.259.011.519.016.777.016h4.526l-.003 16.319c0 .859.695 1.553 1.554 1.553.859 0 1.553-.694 1.553-1.553v-16.318l4.005.001-.003-.004ZM37.95 108.53c-.036-.051-.051-.111-.095-.16-13.967-15.49-18.03-32.965-12.077-51.937C29.687 43.97 36.87 34.895 38.693 32.72c.026 0 .05.008.078.008h8.356c-3.027 7.61-15.45 43.082-.169 77.652a64.596 64.596 0 0 1-9.01-1.85Zm12.574 2.243c-17.162-36.573-1.41-74.866-.04-78.046h11.551c1.365 3.204 16.828 41.212.455 77.946a67.298 67.298 0 0 1-11.966.1Zm14.86-78.046h7.845l.017-.002c3.95 4.664 32.599 40.933 1.298 75.645-.004.004-.007.012-.01.017a64.585 64.585 0 0 1-8.494 1.856c14.556-34.67 2.32-69.946-.655-77.516Zm43.51 37.23c0 15.856-11.662 29.631-28.672 36.462 25.428-32.718 3.273-65.659-3.378-74.178 19.47 6.491 32.05 21.293 32.05 37.719v-.003ZM36.637 24.14c0-1.176.956-2.132 2.134-2.132h34.457c1.178 0 2.134.956 2.134 2.132v3.345a2.135 2.135 0 0 1-2.134 2.134l-34.46-.001a2.135 2.135 0 0 1-2.134-2.134l.003-3.344ZM3.103 69.957c0-15.82 12.818-30.96 31.892-37.671.053-.019.089-.059.139-.083-6.534 8.472-28.561 41.598-2.792 74.441-17.32-6.75-29.238-20.654-29.238-36.686v-.001Zm41.64 50.938V113.2a70.54 70.54 0 0 0 11.256.896c3.855 0 7.621-.308 11.258-.896l.022 7.561c-.226.418-2.116 1.416-5.463 1.416H50.179c-3.345 0-5.238-.999-5.436-1.282Z" class="Vector"/>
  </g>
</svg>
