<svg xmlns="http://www.w3.org/2000/svg" width="78" height="133" fill="currentColor" viewBox="0 0 78 133">
  <g class="long oval lantern">
    <path fill="#C61626" d="M56.577 23.316c1.008-.873 1.66-2.145 1.66-3.58v-2.948a4.762 4.762 0 0 0-4.755-4.756H39.808l-.001-10.525C39.807.674 39.133 0 38.299 0s-1.507.674-1.507 1.507v10.524H23.115a4.76 4.76 0 0 0-4.754 4.755v2.948c0 1.547.753 2.912 1.901 3.78C8.028 31.46 0 46.783 0 62.776c0 19.355 10.673 35.87 25.552 42.057-.014.081-.048.155-.048.24v7.856c0 1.852 1.803 3.023 4.108 3.593v12.318a1.506 1.506 0 1 0 3.015 0v-11.917c.182.006.362.012.544.012h3.851v14.557c0 .833.674 1.507 1.508 1.507.833 0 1.507-.674 1.507-1.507v-14.557h3.392c.333 0 .67-.014 1.004-.035v11.939c0 .833.674 1.507 1.508 1.507.833 0 1.507-.674 1.507-1.507V116.4c2.081-.605 3.649-1.741 3.649-3.471v-7.855c0-.026-.014-.049-.015-.074 15.099-6.05 25.977-22.686 25.977-42.224-.006-16.656-7.948-31.76-20.482-39.46v-.001Zm-11.052 80.306c10.697-36.223 1.248-73.412-.337-79.13h5.602c1.983 3.615 21.593 41.279-.018 77.394a31.81 31.81 0 0 1-5.247 1.736Zm-18.89-1.595c-21.723-36.12-2.082-73.915-.098-77.534h5.948c-1.692 5.797-11.664 43.104-.19 79.291a31.236 31.236 0 0 1-5.66-1.755v-.002Zm8.964 2.258c-.007-.021 0-.044-.008-.065-12.855-38.637-.125-79.2.005-79.606.013-.041.004-.082.013-.123h6.464c.008.034 0 .067.01.1.125.407 12.168 40.9.124 79.623-1.21.146-2.437.223-3.678.223a30.532 30.532 0 0 1-2.93-.153v.001ZM21.374 16.788c0-.962.782-1.742 1.74-1.742h30.367c.962 0 1.742.783 1.742 1.742v2.948c0 .96-.782 1.74-1.742 1.74H23.114c-.96 0-1.74-.781-1.74-1.74v-2.948ZM3.014 62.782c0-15.302 7.788-29.917 19.579-37.175-4.648 9.697-17.445 41.904-.815 73.896C10.62 92.47 3.014 78.65 3.014 62.783Zm45.066 50.02c-.342.372-1.978 1.126-4.653 1.126H33.17c-2.675 0-4.31-.754-4.652-1.126v-6.885a33.5 33.5 0 0 0 10.01 1.539 33.49 33.49 0 0 0 9.55-1.391l.002 6.737Zm7.595-13.556c16.346-31.745 3.817-63.65-.876-73.495 11.772 7.115 19.24 21.322 19.24 37.033 0 15.678-7.424 29.354-18.364 36.462Z" class="Vector"/>
  </g>
</svg>
