<svg xmlns="http://www.w3.org/2000/svg" width="67" height="124" fill="currentColor" viewBox="0 0 67 124">
  <g class="folded rectangle lantern">
    <path fill="#C61626" d="M25.525 25.778v-3.19c0-.88.714-1.595 1.595-1.595h12.762c.88 0 1.595.714 1.595 1.596v3.19a1.596 1.596 0 1 0 3.191 0v-3.19a4.785 4.785 0 0 0-4.786-4.786H27.12a4.785 4.785 0 0 0-4.786 4.786v3.19a1.596 1.596 0 1 0 3.191 0Zm0 76.572v15.953a1.594 1.594 0 0 0 3.19 0V102.35a1.595 1.595 0 1 0-3.19 0Zm6.38 1.608v17.561a1.595 1.595 0 0 0 3.191 0v-17.561a1.596 1.596 0 0 0-3.19 0Zm6.38-1.608v15.953a1.595 1.595 0 0 0 3.191 0V102.35a1.595 1.595 0 0 0-3.19 0Z" class="Vector"/>
    <path fill="#C61626" d="M31.924.706v19.592c0 .39.592.705 1.32.705.73 0 1.32-.315 1.32-.705V.706c0-.39-.59-.706-1.32-.706-.728 0-1.32.316-1.32.706Zm-16.61 42.941a1.594 1.594 0 0 1 0 2.552l-11.06 8.295 11.06 8.296a1.594 1.594 0 0 1 0 2.552l-11.06 8.294 11.06 8.296a1.594 1.594 0 0 1 0 2.552L4.254 92.78l10.635 7.977h37.222l10.634-7.977-11.06-8.295a1.595 1.595 0 0 1 0-2.552l11.06-8.296-11.06-8.294a1.595 1.595 0 0 1 0-2.552l11.06-8.296-11.06-8.295a1.595 1.595 0 0 1 0-2.552l11.06-8.296-10.634-7.976H14.889L4.255 35.351l11.059 8.296ZM.639 36.627a1.594 1.594 0 0 1 0-2.552l12.76-9.571c.277-.207.613-.32.958-.32h38.285c.345 0 .682.113.957.32l12.763 9.571c.85.638.85 1.915 0 2.552l-11.06 8.295 11.06 8.296c.85.638.85 1.914 0 2.552l-11.06 8.295 11.06 8.296c.85.638.85 1.914 0 2.552l-11.06 8.295 11.06 8.296c.85.637.85 1.914 0 2.552L53.6 103.627a1.6 1.6 0 0 1-.958.32H14.357c-.345 0-.68-.113-.957-.32L.639 94.056a1.594 1.594 0 0 1 0-2.552l11.059-8.296-11.06-8.295a1.594 1.594 0 0 1 0-2.552l11.06-8.296L.638 55.77a1.594 1.594 0 0 1 0-2.552l11.06-8.296-11.06-8.295Z" class="Vector"/>
    <path fill="#C61626" d="M1.597 36.947h63.808a1.595 1.595 0 0 0 0-3.191H1.597a1.596 1.596 0 1 0 0 3.19Zm12.76 9.571h38.285a1.596 1.596 0 0 0 0-3.19H14.357a1.596 1.596 0 0 0 0 3.19ZM1.597 56.09h63.808a1.595 1.595 0 0 0 0-3.191H1.597a1.596 1.596 0 1 0 0 3.19Zm12.76 9.571h38.285a1.596 1.596 0 0 0 0-3.19H14.357a1.596 1.596 0 0 0 0 3.19Zm-12.76 9.571h63.808a1.595 1.595 0 0 0 0-3.19H1.597a1.596 1.596 0 1 0 0 3.19Zm0 19.143h60.617a1.596 1.596 0 0 0 0-3.19H1.597a1.596 1.596 0 1 0 0 3.19Zm12.76-9.571h38.285a1.596 1.596 0 0 0 0-3.191H14.357a1.596 1.596 0 0 0 0 3.19Z" class="Vector"/>
  </g>
</svg>
