<svg xmlns="http://www.w3.org/2000/svg" width="59" height="140" fill="currentColor" viewBox="0 0 59 140">
  <g class="oblong lantern">
    <path fill="#C61626" d="M29.312 0c-.833 0-1.508.675-1.508 1.508v24.759H16.95a4.477 4.477 0 0 0-4.472 4.47v4.902C5.26 37.87 0 44.606 0 52.549v40.658c0 9.357 7.305 17.021 16.51 17.637v5.363c0 2.563 4.131 3.473 7.67 3.473h3.625v12.676a3264.594 3264.594 0 0 0 0 3.201v2.935a1.508 1.508 0 0 0 3.017 0v-2.936l-.002-.005c.002-1.577.002-2.284.002-3.698v-3.232c0-1.211-.002-3.231 0-4.861v-4.081h3.622c3.539 0 7.672-.909 7.672-3.473v-5.364c9.204-.615 16.509-8.279 16.509-17.636l-.001-40.656c0-7.943-5.26-14.679-12.48-16.91v-4.9a4.476 4.476 0 0 0-4.471-4.472H30.82V1.51c0-.833-.675-1.508-1.509-1.508L29.313 0ZM3.015 74.385h52.59v13.803H3.015V74.385Zm52.593-3.016H3.015V57.567h52.59l.003 13.802Zm-21.165 45.293H24.181c-2.448 0-4.099-.482-4.655-.816v-4.943h19.573v4.942c-.557.335-2.208.817-4.656.817Zm6.484-8.775h-23.23c-8.096 0-14.682-6.586-14.682-14.68v-2.003h52.591v2.002c.001 8.095-6.585 14.681-14.68 14.681h.001Zm14.681-55.338v2.002l-52.593.001V52.55c0-8.094 6.586-14.68 14.68-14.68h23.232c8.095-.002 14.681 6.585 14.681 14.68Zm-12.48-21.81v4.265a17.676 17.676 0 0 0-2.2-.151H17.695c-.747 0-1.479.062-2.202.151V30.74c0-.803.654-1.455 1.456-1.455h24.723c.803 0 1.455.652 1.455 1.455Z" class="Vector"/>
    <path fill="#C61626" d="M22.006 119.055v16.409c0 .905.649 1.64 1.449 1.64.798 0 1.447-.735 1.447-1.64v-16.409c0-.905-.649-1.64-1.447-1.64-.8 0-1.449.735-1.449 1.64Zm11.583 0v16.409c0 .905.648 1.64 1.448 1.64.799 0 1.447-.735 1.447-1.64v-16.409c0-.905-.648-1.64-1.447-1.64-.8 0-1.448.735-1.448 1.64Z" class="Vector"/>
  </g>
</svg>
