<svg xmlns="http://www.w3.org/2000/svg" width="70" height="63" fill="currentColor" viewBox="0 0 70 63">
  <g class="Group">
    <path fill="#E15B54" stroke="currentColor" d="M66.518 60.47V19.72h1.908c.636 0 1.06-.423 1.06-1.06V7.63c0-.636-.423-1.06-1.06-1.06H55.068V5.509c0-1.273-.53-2.546-1.484-3.394-.954-.849-2.227-1.273-3.498-1.061l-10.708 1.38c-.53-.637-1.378-1.167-2.332-1.167h-3.393c-.954 0-1.802.424-2.332 1.167l-10.708-1.38c-1.272-.212-2.544.213-3.498 1.061-.954.849-1.484 2.121-1.484 3.395v1.06H2.06C1.423 6.57 1 6.994 1 7.63v10.924c0 .636.424 1.06 1.06 1.06h1.908L3.97 60.47c0 .637.424 1.061 1.06 1.061h60.324c.742 0 1.165-.424 1.165-1.06v-.001Zm-2.12-1.06H41.711V19.72h22.687v39.69ZM39.591 19.72v39.69h-9.012V19.72h9.011Zm-33.396 0H28.46v39.69H6.195V19.72ZM30.473 4.448v6.046l-10.178 1.272c-.636.106-1.378-.106-1.802-.53-.53-.424-.742-1.061-.742-1.803V5.509c0-.636.317-1.272.742-1.803.53-.424 1.166-.636 1.802-.53l10.178 1.272ZM38 4.343v6.15a.95.95 0 0 1-.954.955h-3.393a.95.95 0 0 1-.954-.954V4.343a.95.95 0 0 1 .954-.955h3.393c.424 0 .954.424.954.955Zm14.948 5.09c0 .636-.318 1.272-.742 1.803-.53.424-1.166.636-1.802.53l-10.178-1.272V4.448l10.178-1.272h.318c.53 0 1.166.212 1.59.636.53.424.742 1.06.742 1.803v3.818h-.106Zm14.419 8.166H3.12V8.797h12.298v.636c0 1.272.53 2.546 1.484 3.394.849.743 1.908 1.167 2.969 1.167h.53l10.707-1.38c.53.637 1.379 1.167 2.333 1.167h3.393c.954 0 1.802-.424 2.332-1.166l10.708 1.379h.53c1.06 0 2.12-.424 2.968-1.167.954-.848 1.484-2.12 1.484-3.394v-.636h12.298v8.802h.213Z" class="Vector"/>
  </g>
</svg>
