<svg xmlns="http://www.w3.org/2000/svg" width="75" height="75" fill="currentColor" viewBox="0 0 75 75">
  <g class="Group">
    <path fill="#E15B54" stroke="E15B54" d="M39.79 1.012a.913.913 0 0 0-.757 1.045l1.181 7.389a.912.912 0 1 0 1.803-.288L40.836 1.77a.915.915 0 0 0-1.046-.758Zm14.079 2.073-2.633 7.003a.912.912 0 1 0 1.709.642l2.632-7.003a.912.912 0 0 0-1.708-.642Zm13.668 8.358a.913.913 0 0 0-1.285-.119l-5.755 4.781a.913.913 0 1 0 1.167 1.404l5.755-4.78a.915.915 0 0 0 .118-1.286ZM65.56 25.917a.914.914 0 0 0 .318 1.798l7.368-1.305a.914.914 0 0 0-.318-1.798l-7.368 1.305ZM64.488 38.67l7.046 2.515a.913.913 0 0 0 .614-1.72l-7.046-2.515a.913.913 0 0 0-.614 1.72ZM17.153 20.858a.912.912 0 1 0-.555 1.738l7.126 2.28a.915.915 0 0 0 1.148-.591.913.913 0 0 0-.592-1.148l-7.127-2.28Zm12.789-5.236a.913.913 0 0 0 .671-1.53l-5.063-5.51a.914.914 0 0 0-1.344 1.235l5.063 5.51a.91.91 0 0 0 .673.295Z" class="Vector"/>
    <path fill="#E15B54" stroke="E15B54" d="M65.881 49.71c-.421-4.565-2.836-8.514-6.339-11.026a17.104 17.104 0 0 0 1.863-10.816c-1.488-9.313-10.275-15.678-19.59-14.19a17.003 17.003 0 0 0-14.382 17.097 15.52 15.52 0 0 0-2.377-.183c-8.448 0-15.322 6.873-15.322 15.32 0 1.159.133 2.316.397 3.453C4.787 50.895 1 55.845 1 61.484a12.569 12.569 0 0 0 11.883 12.569.918.918 0 0 0 .201.021l.315.004c.135.01.221.014.46-.004l47.334.004c.067.005.135.009.204.009.07 0 .136-.004.255-.013h.257a.88.88 0 0 0 .194-.02A12.568 12.568 0 0 0 74 61.483a12.563 12.563 0 0 0-8.117-11.774h-.002ZM42.102 15.478c8.322-1.326 16.171 4.358 17.501 12.677a15.272 15.272 0 0 1-1.606 9.555 15.217 15.217 0 0 0-7.351-1.896c-4.31 0-8.302 1.758-11.194 4.879a15.223 15.223 0 0 0-10.188-9.51 15.193 15.193 0 0 1 12.839-15.705Zm19.77 56.758a.957.957 0 0 0-.114.012l-.287.008-.33-.008h-47.9a.981.981 0 0 0-.115-.013 10.748 10.748 0 0 1-10.3-10.754c0-5.1 3.62-9.541 8.609-10.56a.913.913 0 0 0 .692-1.156 13.484 13.484 0 0 1-.566-3.856c0-7.441 6.054-13.496 13.496-13.496 6.28 0 11.675 4.27 13.12 10.384a.914.914 0 0 0 1.622.333c2.58-3.49 6.535-5.493 10.848-5.493 7.17 0 13.081 5.613 13.46 12.778a.91.91 0 0 0 .629.82 10.751 10.751 0 0 1 7.442 10.246A10.75 10.75 0 0 1 61.87 72.237Z" class="Vector"/>
  </g>
</svg>
